<?xml version="1.0" standalone="no"?>
<svg xmlns:xlink="http://www.w3.org/1999/xlink" id="wave" style="transform:rotate(0deg); transition: 0.3s" viewBox="0 0 1440 490" version="1.1" xmlns="http://www.w3.org/2000/svg"><defs><linearGradient id="sw-gradient-0" x1="0" x2="0" y1="1" y2="0"><stop stop-color="rgba(125.806, 167.483, 243.901, 1)" offset="0%"/><stop stop-color="rgba(246.177, 163.122, 209.41, 1)" offset="100%"/></linearGradient></defs><path style="transform:translate(0, 0px); opacity:1" fill="url(#sw-gradient-0)" d="M0,98L26.7,81.7C53.3,65,107,33,160,89.8C213.3,147,267,294,320,334.8C373.3,376,427,310,480,269.5C533.3,229,587,212,640,245C693.3,278,747,359,800,367.5C853.3,376,907,310,960,302.2C1013.3,294,1067,343,1120,375.7C1173.3,408,1227,425,1280,400.2C1333.3,376,1387,310,1440,277.7C1493.3,245,1547,245,1600,220.5C1653.3,196,1707,147,1760,114.3C1813.3,82,1867,65,1920,114.3C1973.3,163,2027,278,2080,343C2133.3,408,2187,425,2240,375.7C2293.3,327,2347,212,2400,212.3C2453.3,212,2507,327,2560,351.2C2613.3,376,2667,310,2720,277.7C2773.3,245,2827,245,2880,245C2933.3,245,2987,245,3040,269.5C3093.3,294,3147,343,3200,367.5C3253.3,392,3307,392,3360,400.2C3413.3,408,3467,425,3520,392C3573.3,359,3627,278,3680,212.3C3733.3,147,3787,98,3813,73.5L3840,49L3840,490L3813.3,490C3786.7,490,3733,490,3680,490C3626.7,490,3573,490,3520,490C3466.7,490,3413,490,3360,490C3306.7,490,3253,490,3200,490C3146.7,490,3093,490,3040,490C2986.7,490,2933,490,2880,490C2826.7,490,2773,490,2720,490C2666.7,490,2613,490,2560,490C2506.7,490,2453,490,2400,490C2346.7,490,2293,490,2240,490C2186.7,490,2133,490,2080,490C2026.7,490,1973,490,1920,490C1866.7,490,1813,490,1760,490C1706.7,490,1653,490,1600,490C1546.7,490,1493,490,1440,490C1386.7,490,1333,490,1280,490C1226.7,490,1173,490,1120,490C1066.7,490,1013,490,960,490C906.7,490,853,490,800,490C746.7,490,693,490,640,490C586.7,490,533,490,480,490C426.7,490,373,490,320,490C266.7,490,213,490,160,490C106.7,490,53,490,27,490L0,490Z"/></svg>