<?xml version="1.0" standalone="no"?>
<svg xmlns:xlink="http://www.w3.org/1999/xlink" id="wave" style="transform:rotate(0deg); transition: 0.3s" viewBox="0 0 1440 490" version="1.1" xmlns="http://www.w3.org/2000/svg"><defs><linearGradient id="sw-gradient-0" x1="0" x2="0" y1="1" y2="0"><stop stop-color="rgba(62, 125.877, 243, 1)" offset="0%"/><stop stop-color="rgba(255, 11, 146.985, 1)" offset="100%"/></linearGradient></defs><path style="transform:translate(0, 0px); opacity:1" fill="url(#sw-gradient-0)" d="M0,0L26.7,49C53.3,98,107,196,160,204.2C213.3,212,267,131,320,130.7C373.3,131,427,212,480,269.5C533.3,327,587,359,640,383.8C693.3,408,747,425,800,408.3C853.3,392,907,343,960,294C1013.3,245,1067,196,1120,196C1173.3,196,1227,245,1280,269.5C1333.3,294,1387,294,1440,253.2C1493.3,212,1547,131,1600,130.7C1653.3,131,1707,212,1760,269.5C1813.3,327,1867,359,1920,367.5C1973.3,376,2027,359,2080,343C2133.3,327,2187,310,2240,277.7C2293.3,245,2347,196,2400,171.5C2453.3,147,2507,147,2560,187.8C2613.3,229,2667,310,2720,302.2C2773.3,294,2827,196,2880,147C2933.3,98,2987,98,3040,89.8C3093.3,82,3147,65,3200,57.2C3253.3,49,3307,49,3360,81.7C3413.3,114,3467,180,3520,187.8C3573.3,196,3627,147,3680,106.2C3733.3,65,3787,33,3813,16.3L3840,0L3840,490L3813.3,490C3786.7,490,3733,490,3680,490C3626.7,490,3573,490,3520,490C3466.7,490,3413,490,3360,490C3306.7,490,3253,490,3200,490C3146.7,490,3093,490,3040,490C2986.7,490,2933,490,2880,490C2826.7,490,2773,490,2720,490C2666.7,490,2613,490,2560,490C2506.7,490,2453,490,2400,490C2346.7,490,2293,490,2240,490C2186.7,490,2133,490,2080,490C2026.7,490,1973,490,1920,490C1866.7,490,1813,490,1760,490C1706.7,490,1653,490,1600,490C1546.7,490,1493,490,1440,490C1386.7,490,1333,490,1280,490C1226.7,490,1173,490,1120,490C1066.7,490,1013,490,960,490C906.7,490,853,490,800,490C746.7,490,693,490,640,490C586.7,490,533,490,480,490C426.7,490,373,490,320,490C266.7,490,213,490,160,490C106.7,490,53,490,27,490L0,490Z"/></svg>