<?xml version="1.0" standalone="no"?>
<svg xmlns:xlink="http://www.w3.org/1999/xlink" id="wave" style="transform:rotate(0deg); transition: 0.3s" viewBox="0 0 1440 490" version="1.1" xmlns="http://www.w3.org/2000/svg"><defs><linearGradient id="sw-gradient-0" x1="0" x2="0" y1="1" y2="0"><stop stop-color="rgba(62, 125.877, 243, 1)" offset="0%"/><stop stop-color="rgba(255, 11, 146.985, 1)" offset="100%"/></linearGradient></defs><path style="transform:translate(0, 0px); opacity:1" fill="url(#sw-gradient-0)" d="M0,0L30,16.3C60,33,120,65,180,98C240,131,300,163,360,204.2C420,245,480,294,540,269.5C600,245,660,147,720,89.8C780,33,840,16,900,73.5C960,131,1020,261,1080,302.2C1140,343,1200,294,1260,228.7C1320,163,1380,82,1440,65.3C1500,49,1560,98,1620,114.3C1680,131,1740,114,1800,106.2C1860,98,1920,98,1980,81.7C2040,65,2100,33,2160,16.3C2220,0,2280,0,2340,57.2C2400,114,2460,229,2520,302.2C2580,376,2640,408,2700,375.7C2760,343,2820,245,2880,236.8C2940,229,3000,310,3060,318.5C3120,327,3180,261,3240,261.3C3300,261,3360,327,3420,351.2C3480,376,3540,359,3600,359.3C3660,359,3720,376,3780,351.2C3840,327,3900,261,3960,220.5C4020,180,4080,163,4140,138.8C4200,114,4260,82,4290,65.3L4320,49L4320,490L4290,490C4260,490,4200,490,4140,490C4080,490,4020,490,3960,490C3900,490,3840,490,3780,490C3720,490,3660,490,3600,490C3540,490,3480,490,3420,490C3360,490,3300,490,3240,490C3180,490,3120,490,3060,490C3000,490,2940,490,2880,490C2820,490,2760,490,2700,490C2640,490,2580,490,2520,490C2460,490,2400,490,2340,490C2280,490,2220,490,2160,490C2100,490,2040,490,1980,490C1920,490,1860,490,1800,490C1740,490,1680,490,1620,490C1560,490,1500,490,1440,490C1380,490,1320,490,1260,490C1200,490,1140,490,1080,490C1020,490,960,490,900,490C840,490,780,490,720,490C660,490,600,490,540,490C480,490,420,490,360,490C300,490,240,490,180,490C120,490,60,490,30,490L0,490Z"/></svg>